<mxfile host="Electron" modified="2023-07-27T09:54:00.978Z" agent="Mozilla/5.0 (Windows NT 10.0; Win64; x64) AppleWebKit/537.36 (KHTML, like Gecko) draw.io/21.6.5 Chrome/114.0.5735.243 Electron/25.3.1 Safari/537.36" etag="OBV65WKRE8W2GDoXs5ft" version="21.6.5" type="device">
  <diagram name="Page-1" id="G19MaHDJLv5m8tROtpbs">
    <mxGraphModel dx="660" dy="983" grid="1" gridSize="10" guides="1" tooltips="1" connect="1" arrows="1" fold="1" page="1" pageScale="1" pageWidth="827" pageHeight="1169" math="0" shadow="0">
      <root>
        <mxCell id="0" />
        <mxCell id="1" parent="0" />
        <mxCell id="VoHrRDRtLuEmYj3zzCG1-33" style="edgeStyle=orthogonalEdgeStyle;rounded=0;orthogonalLoop=1;jettySize=auto;html=1;shape=flexArrow;fillColor=#d5e8d4;strokeColor=#82b366;" parent="1" source="VoHrRDRtLuEmYj3zzCG1-1" target="VoHrRDRtLuEmYj3zzCG1-9" edge="1">
          <mxGeometry relative="1" as="geometry" />
        </mxCell>
        <mxCell id="eFKvpRhE4dItToEOp3BU-2" style="edgeStyle=orthogonalEdgeStyle;rounded=0;orthogonalLoop=1;jettySize=auto;html=1;exitX=0;exitY=1;exitDx=0;exitDy=0;entryX=1;entryY=0;entryDx=0;entryDy=0;shape=flexArrow;startArrow=block;fillColor=#d5e8d4;strokeColor=#82b366;" edge="1" parent="1" source="VoHrRDRtLuEmYj3zzCG1-1" target="VoHrRDRtLuEmYj3zzCG1-3">
          <mxGeometry relative="1" as="geometry" />
        </mxCell>
        <mxCell id="VoHrRDRtLuEmYj3zzCG1-1" value="&lt;font face=&quot;Verdana&quot;&gt;Sprinting&lt;/font&gt;" style="rounded=1;whiteSpace=wrap;html=1;fillColor=#d5e8d4;strokeColor=#82b366;" parent="1" vertex="1">
          <mxGeometry x="440" y="240" width="120" height="40" as="geometry" />
        </mxCell>
        <mxCell id="VoHrRDRtLuEmYj3zzCG1-29" style="edgeStyle=orthogonalEdgeStyle;rounded=0;orthogonalLoop=1;jettySize=auto;html=1;entryX=0;entryY=0.5;entryDx=0;entryDy=0;shape=flexArrow;startArrow=block;fillColor=#d5e8d4;strokeColor=#82b366;gradientColor=#ffe6cc;gradientDirection=east;" parent="1" source="VoHrRDRtLuEmYj3zzCG1-3" target="VoHrRDRtLuEmYj3zzCG1-4" edge="1">
          <mxGeometry relative="1" as="geometry" />
        </mxCell>
        <mxCell id="VoHrRDRtLuEmYj3zzCG1-30" style="edgeStyle=orthogonalEdgeStyle;rounded=0;orthogonalLoop=1;jettySize=auto;html=1;entryX=0;entryY=0.5;entryDx=0;entryDy=0;shape=flexArrow;fillColor=#d5e8d4;strokeColor=#82b366;" parent="1" source="VoHrRDRtLuEmYj3zzCG1-3" target="VoHrRDRtLuEmYj3zzCG1-10" edge="1">
          <mxGeometry relative="1" as="geometry" />
        </mxCell>
        <mxCell id="VoHrRDRtLuEmYj3zzCG1-3" value="&lt;font face=&quot;Verdana&quot;&gt;Wall Sliding&lt;/font&gt;" style="rounded=1;whiteSpace=wrap;html=1;fillColor=#d5e8d4;strokeColor=#82b366;" parent="1" vertex="1">
          <mxGeometry x="240" y="360" width="120" height="40" as="geometry" />
        </mxCell>
        <mxCell id="VoHrRDRtLuEmYj3zzCG1-6" value="&lt;font face=&quot;Verdana&quot;&gt;Jump&lt;/font&gt;" style="rounded=1;whiteSpace=wrap;html=1;fillColor=#d5e8d4;strokeColor=#82b366;" parent="1" vertex="1">
          <mxGeometry x="294" y="120" width="120" height="40" as="geometry" />
        </mxCell>
        <mxCell id="VoHrRDRtLuEmYj3zzCG1-7" value="&lt;font face=&quot;Verdana&quot;&gt;Double Jump&lt;/font&gt;" style="rounded=1;whiteSpace=wrap;html=1;fillColor=#d5e8d4;strokeColor=#82b366;" parent="1" vertex="1">
          <mxGeometry x="130" y="120" width="120" height="40" as="geometry" />
        </mxCell>
        <mxCell id="VoHrRDRtLuEmYj3zzCG1-8" value="&lt;font face=&quot;Verdana&quot;&gt;Triple Jump&lt;/font&gt;" style="rounded=1;whiteSpace=wrap;html=1;fillColor=#d5e8d4;strokeColor=#82b366;" parent="1" vertex="1">
          <mxGeometry x="80" y="240" width="120" height="40" as="geometry" />
        </mxCell>
        <mxCell id="VoHrRDRtLuEmYj3zzCG1-9" value="&lt;font face=&quot;Verdana&quot;&gt;Long Jump&lt;/font&gt;" style="rounded=1;whiteSpace=wrap;html=1;fillColor=#d5e8d4;strokeColor=#82b366;" parent="1" vertex="1">
          <mxGeometry x="440" y="120" width="120" height="40" as="geometry" />
        </mxCell>
        <mxCell id="VoHrRDRtLuEmYj3zzCG1-10" value="&lt;font face=&quot;Verdana&quot;&gt;Wall Jump&lt;/font&gt;" style="rounded=1;whiteSpace=wrap;html=1;fillColor=#d5e8d4;strokeColor=#82b366;gradientColor=#ffe6cc;gradientDirection=east;" parent="1" vertex="1">
          <mxGeometry x="330" y="440" width="120" height="40" as="geometry" />
        </mxCell>
        <mxCell id="VoHrRDRtLuEmYj3zzCG1-27" style="edgeStyle=orthogonalEdgeStyle;rounded=0;orthogonalLoop=1;jettySize=auto;html=1;entryX=0.5;entryY=0;entryDx=0;entryDy=0;shape=flexArrow;startArrow=block;fillColor=#d5e8d4;strokeColor=#82b366;" parent="1" source="VoHrRDRtLuEmYj3zzCG1-2" target="VoHrRDRtLuEmYj3zzCG1-3" edge="1">
          <mxGeometry relative="1" as="geometry" />
        </mxCell>
        <mxCell id="VoHrRDRtLuEmYj3zzCG1-28" style="edgeStyle=orthogonalEdgeStyle;rounded=0;orthogonalLoop=1;jettySize=auto;html=1;entryX=0;entryY=0.5;entryDx=0;entryDy=0;shape=flexArrow;startArrow=block;fillColor=#d5e8d4;strokeColor=#82b366;" parent="1" source="VoHrRDRtLuEmYj3zzCG1-2" target="VoHrRDRtLuEmYj3zzCG1-1" edge="1">
          <mxGeometry relative="1" as="geometry" />
        </mxCell>
        <mxCell id="VoHrRDRtLuEmYj3zzCG1-35" style="edgeStyle=orthogonalEdgeStyle;rounded=0;orthogonalLoop=1;jettySize=auto;html=1;entryX=0.5;entryY=1;entryDx=0;entryDy=0;shape=flexArrow;fillColor=#d5e8d4;strokeColor=#82b366;" parent="1" source="VoHrRDRtLuEmYj3zzCG1-2" target="VoHrRDRtLuEmYj3zzCG1-7" edge="1">
          <mxGeometry relative="1" as="geometry" />
        </mxCell>
        <mxCell id="VoHrRDRtLuEmYj3zzCG1-36" style="edgeStyle=orthogonalEdgeStyle;rounded=0;orthogonalLoop=1;jettySize=auto;html=1;entryX=1;entryY=0.5;entryDx=0;entryDy=0;shape=flexArrow;fillColor=#d5e8d4;strokeColor=#82b366;" parent="1" source="VoHrRDRtLuEmYj3zzCG1-2" target="VoHrRDRtLuEmYj3zzCG1-8" edge="1">
          <mxGeometry relative="1" as="geometry" />
        </mxCell>
        <mxCell id="eFKvpRhE4dItToEOp3BU-1" style="edgeStyle=orthogonalEdgeStyle;rounded=0;orthogonalLoop=1;jettySize=auto;html=1;exitX=1;exitY=1;exitDx=0;exitDy=0;entryX=0;entryY=0;entryDx=0;entryDy=0;shape=flexArrow;startArrow=block;fillColor=#d5e8d4;strokeColor=#82b366;gradientColor=#ffe6cc;" edge="1" parent="1" source="VoHrRDRtLuEmYj3zzCG1-2" target="VoHrRDRtLuEmYj3zzCG1-4">
          <mxGeometry relative="1" as="geometry" />
        </mxCell>
        <mxCell id="VoHrRDRtLuEmYj3zzCG1-2" value="&lt;font face=&quot;Verdana&quot;&gt;Idle/Walking&lt;/font&gt;" style="rounded=1;whiteSpace=wrap;html=1;fillColor=#d5e8d4;strokeColor=#82b366;" parent="1" vertex="1">
          <mxGeometry x="240" y="240" width="120" height="40" as="geometry" />
        </mxCell>
        <mxCell id="VoHrRDRtLuEmYj3zzCG1-31" style="edgeStyle=orthogonalEdgeStyle;rounded=0;orthogonalLoop=1;jettySize=auto;html=1;entryX=1;entryY=0.5;entryDx=0;entryDy=0;shape=flexArrow;fillColor=#ffe6cc;strokeColor=#d79b00;" parent="1" source="VoHrRDRtLuEmYj3zzCG1-4" target="VoHrRDRtLuEmYj3zzCG1-10" edge="1">
          <mxGeometry relative="1" as="geometry" />
        </mxCell>
        <mxCell id="VoHrRDRtLuEmYj3zzCG1-32" style="edgeStyle=orthogonalEdgeStyle;rounded=0;orthogonalLoop=1;jettySize=auto;html=1;entryX=0.5;entryY=1;entryDx=0;entryDy=0;shape=flexArrow;startArrow=block;fillColor=#d5e8d4;strokeColor=#82b366;gradientColor=#ffe6cc;" parent="1" source="VoHrRDRtLuEmYj3zzCG1-4" target="VoHrRDRtLuEmYj3zzCG1-1" edge="1">
          <mxGeometry relative="1" as="geometry" />
        </mxCell>
        <mxCell id="VoHrRDRtLuEmYj3zzCG1-4" value="&lt;font face=&quot;Verdana&quot;&gt;Climbing&lt;/font&gt;" style="rounded=1;whiteSpace=wrap;html=1;fillColor=#ffe6cc;strokeColor=#d79b00;" parent="1" vertex="1">
          <mxGeometry x="440" y="360" width="120" height="40" as="geometry" />
        </mxCell>
        <mxCell id="VoHrRDRtLuEmYj3zzCG1-34" style="edgeStyle=orthogonalEdgeStyle;rounded=0;orthogonalLoop=1;jettySize=auto;html=1;exitX=0.5;exitY=0;exitDx=0;exitDy=0;entryX=0.5;entryY=1;entryDx=0;entryDy=0;shape=flexArrow;fillColor=#d5e8d4;strokeColor=#82b366;" parent="1" source="VoHrRDRtLuEmYj3zzCG1-2" target="VoHrRDRtLuEmYj3zzCG1-6" edge="1">
          <mxGeometry relative="1" as="geometry" />
        </mxCell>
      </root>
    </mxGraphModel>
  </diagram>
</mxfile>
